<svg xmlns="http://www.w3.org/2000/svg" viewBox="0 0 32 32"><rect width="32" height="32" rx="7" fill="#DC2459"/><g transform="translate(5,-2.5) scale(3.17)" fill="white"><path d="M6.94336 4.7793C6.94336 4.99023 6.90625 5.21875 6.83203 5.46484C6.75781 5.70703 6.63672 5.93359 6.46875 6.14453C6.30469 6.35156 6.08789 6.52539 5.81836 6.66602C5.55273 6.80664 5.22852 6.87695 4.8457 6.87695H2.09766V5.42969H4.8457C5.05273 5.42969 5.21289 5.36719 5.32617 5.24219C5.43945 5.11328 5.49609 4.95508 5.49609 4.76758C5.49609 4.56836 5.43164 4.41211 5.30273 4.29883C5.17773 4.18555 5.02539 4.12891 4.8457 4.12891H2.09766C1.89062 4.12891 1.73047 4.19336 1.61719 4.32227C1.50391 4.44727 1.44727 4.60352 1.44727 4.79102V6.91797C1.44727 7.12109 1.50977 7.2793 1.63477 7.39258C1.76367 7.50586 1.92188 7.5625 2.10938 7.5625H4.8457V9.01562H2.09766C1.88672 9.01562 1.6582 8.97852 1.41211 8.9043C1.16992 8.83008 0.943359 8.71094 0.732422 8.54688C0.525391 8.37891 0.351562 8.16211 0.210938 7.89648C0.0703125 7.62695 0 7.30078 0 6.91797V4.7793C0 4.56836 0.0371094 4.3418 0.111328 4.09961C0.185547 3.85352 0.304688 3.62695 0.46875 3.41992C0.636719 3.20898 0.853516 3.0332 1.11914 2.89258C1.38867 2.75195 1.71484 2.68164 2.09766 2.68164H4.8457C5.05664 2.68164 5.2832 2.71875 5.52539 2.79297C5.77148 2.86719 5.99805 2.98828 6.20508 3.15625C6.41602 3.32031 6.5918 3.53711 6.73242 3.80664C6.87305 4.07227 6.94336 4.39648 6.94336 4.7793Z"/></g></svg>
